<mxfile host="app.diagrams.net" modified="2023-11-09T02:50:39.092Z" agent="Mozilla/5.0 (Windows NT 10.0; Win64; x64) AppleWebKit/537.36 (KHTML, like Gecko) Chrome/118.0.0.0 Safari/537.36" version="22.1.0" etag="e4cuj6QHTQX5fcDOQ9Xi" type="github">
  <diagram name="Page-1" id="GttJnHaE_kjy27mV4MsW">
    <mxGraphModel>
      <root>
        <mxCell id="0" />
        <mxCell id="1" parent="0" />
      </root>
    </mxGraphModel>
  </diagram>
</mxfile>
